<svg xmlns="http://www.w3.org/2000/svg" version="1.1" xmlns:xlink="http://www.w3.org/1999/xlink"
    xmlns:svgjs="http://svgjs.com/svgjs" width="512" height="512" x="0" y="0" viewBox="0 0 512 511"
    style="enable-background:new 0 0 512 512" xml:space="preserve" class="">
    <g>
        <path xmlns="http://www.w3.org/2000/svg"
            d="m512 492.484375c0 11.046875-8.953125 20-20 20h-472c-11.046875 0-20-8.953125-20-20 0-11.042969 8.953125-20 20-20h216v-50.015625l-72.980469.015625c-.003906 0-.011719 0-.019531 0-21.367188 0-41.449219-8.316406-56.5625-23.421875-15.113281-15.113281-23.4375-35.203125-23.4375-56.578125v-261.984375c0-44.113281 35.886719-80 80-80h184c44.113281 0 80 35.886719 80 80v162c0 11.046875-8.953125 20-20 20s-20-8.953125-20-20v-162c0-22.054688-17.945312-40-40-40h-184c-22.054688 0-40 17.945312-40 40v261.984375c0 10.6875 4.160156 20.734375 11.71875 28.289063 7.554688 7.550781 17.597656 11.710937 28.28125 11.710937h.007812l184-.042969c22.050782-.007812 39.992188-17.949218 39.992188-40 0-11.046875 8.953125-20 20-20s20 8.953125 20 20c0 44.101563-35.878906 79.988282-79.980469 80l-71.019531.015625v50.027344h216c11.046875 0 20 8.957031 20 20zm-186.109375-383.984375h-141.890625c-11.046875 0-20 8.953125-20 20s8.953125 20 20 20h141.890625c11.042969 0 20-8.953125 20-20s-8.957031-20-20-20zm20 100c0-11.046875-8.957031-20-20-20h-141.890625c-11.046875 0-20 8.953125-20 20s8.953125 20 20 20h141.890625c11.042969 0 20-8.953125 20-20zm-161.890625 60c-11.046875 0-20 8.953125-20 20s8.953125 20 20 20h61c11.046875 0 20-8.953125 20-20s-8.953125-20-20-20zm0 0"
            fill="#ffffff" data-original="#000000" style="" class=""></path>
    </g>
</svg>