<svg xmlns="http://www.w3.org/2000/svg" width="512" height="512" viewBox="0 0 512 511"
    style="enable-background:new 0 0 512 512" xml:space="preserve">
    <linearGradient xmlns="http://www.w3.org/2000/svg" id="a" gradientUnits="userSpaceOnUse" x1="0" x2="512"
        y1="256.493" y2="256.493">
        <stop offset="0" stop-color="#00f2fe" />
        <stop offset=".021" stop-color="#03effe" />
        <stop offset=".293" stop-color="#24d2fe" />
        <stop offset=".554" stop-color="#3cbdfe" />
        <stop offset=".796" stop-color="#4ab0fe" />
        <stop offset="1" stop-color="#4facfe" />
    </linearGradient>
    <path xmlns="http://www.w3.org/2000/svg"
        d="M512 492.484c0 11.047-8.953 20-20 20H20c-11.047 0-20-8.953-20-20 0-11.043 8.953-20 20-20h216V422.47l-72.98.015H163c-21.367 0-41.45-8.316-56.563-23.421C91.325 383.949 83 363.858 83 342.483V80.5c0-44.113 35.887-80 80-80h184c44.113 0 80 35.887 80 80v162c0 11.047-8.953 20-20 20s-20-8.953-20-20v-162c0-22.055-17.945-40-40-40H163c-22.055 0-40 17.945-40 40v261.984c0 10.688 4.16 20.735 11.719 28.29 7.554 7.55 17.597 11.71 28.281 11.71h.008l184-.043c22.05-.007 39.992-17.949 39.992-40 0-11.046 8.953-20 20-20s20 8.954 20 20c0 44.102-35.879 79.989-79.98 80l-71.02.016v50.027h216c11.047 0 20 8.957 20 20zM325.89 108.5H184c-11.047 0-20 8.953-20 20s8.953 20 20 20h141.89c11.044 0 20-8.953 20-20s-8.956-20-20-20zm20 100c0-11.047-8.956-20-20-20H184c-11.047 0-20 8.953-20 20s8.953 20 20 20h141.89c11.044 0 20-8.953 20-20zM184 268.5c-11.047 0-20 8.953-20 20s8.953 20 20 20h61c11.047 0 20-8.953 20-20s-8.953-20-20-20zm0 0"
        fill="url(#a)" data-original="url(#a)" />
</svg>