<svg height="499pt" viewBox="0 -1 499.584 499" width="499pt" xmlns="http://www.w3.org/2000/svg"><path d="m200 421.011719h-16v29.390625l20.425781 10.21875 7.148438-14.3125-11.574219-5.792969zm0 0"/><path d="m275.574219 364.621094-7.148438-14.3125-12.425781 6.207031-12.425781-6.207031-7.148438 14.3125 19.574219 9.78125zm0 0"/><path d="m332.425781 325.851562 7.148438 14.3125 12.425781-6.207031 8 4v19.503907h16v-29.394532l-24-12zm0 0"/><path d="m123.574219 220.621094-7.148438-14.3125-12.425781 6.207031-8-4v-19.503906h-16v29.390625l24 12zm0 0"/><path d="m68.425781 108.164062 7.148438-14.3125-19.574219-9.785156-19.574219 9.785156 7.148438 14.3125 12.425781-6.207031zm0 0"/><path d="m104 330.179688 44.425781 22.207031 7.160157-14.3125-43.585938-21.78125v-54.113281l40-20 44.425781 22.207031 7.160157-14.3125-43.585938-21.78125v-54.113281l40-20 44.425781 22.207031 7.160157-14.3125-43.585938-21.78125v-64l-56-28-48 24-48-24-56 28v73.886719l48 24v54.113281l-48 24v73.886719l48 24v59.054687h16v-59.054687zm-40-156 40-20 40 20v54.113281l-40 20-40-20zm128-88v54.113281l-40 20-40-20v-54.113281l40-20zm-176 0 40-20 40 20v54.113281l-40 20-40-20zm0 176 40-20 40 20v54.113281l-40 20-40-20zm0 0"/><path d="m352 185.234375h16v-59.054687l40-20 44.425781 22.207031 7.160157-14.3125-43.585938-21.78125v-64l-56-28-56 28v73.886719l48 24zm-32-147.054687 40-20 40 20v54.113281l-40 20-40-20zm0 0"/><path d="m448 298.179688 44.425781 22.207031 7.160157-14.3125-43.585938-21.78125v-64l-48-24v-59.058594h-16v59.058594l-40 20-44.425781-22.207031-7.160157 14.308593 43.585938 21.785157v54.113281l-40 20-40-20v-59.058594h-16v59.058594l-40 20-44.425781-22.207031-7.160157 14.308593 43.585938 21.785157v54.113281l-40 20-44.425781-22.207031-7.160157 14.308593 43.585938 21.785157v54.113281l-43.574219 21.792969 7.160157 14.308593 44.414062-22.214843 48 24 48-24 44.425781 22.207031 7.160157-14.3125-43.585938-21.78125v-54.113281l40-20 40 20v59.054687h16v-59.054687l40-20 44.425781 22.207031 7.160157-14.3125-43.585938-21.78125v-54.113281zm-88-68 40-20 40 20v54.113281l-40 20-40-20zm-144 88 40-20 40 20v54.113281l-40 20-40-20zm32 142.113281-40 20-40-20v-54.113281l40-20 40 20zm144-88-40 20-40-20v-54.113281l40-20 40 20zm0 0"/></svg>