<svg height="499pt" viewBox="0 -1 499.576 499" width="499pt" xmlns="http://www.w3.org/2000/svg" xmlns:xlink="http://www.w3.org/1999/xlink"><linearGradient id="a" gradientUnits="userSpaceOnUse" x1="249.7888" x2="249.7888" y1="498.1776" y2=".2864"><stop offset="0" stop-color="#9f2fff"/><stop offset="1" stop-color="#0bb1d3"/></linearGradient><path d="m200 440.511719 11.574219 5.792969-7.160157 14.3125-20.414062-10.21875v-29.398438h16zm75.574219-75.894531-7.160157-14.3125-12.414062 6.207031-12.425781-6.207031-7.160157 14.3125 19.585938 9.78125zm56.851562-38.769532 7.160157 14.3125 12.414062-6.207031 8 4v19.503906h16v-29.402343l-24-12zm-208.851562-105.230468-7.160157-14.3125-12.414062 6.207031-8-4v-19.503907h-16v29.398438l24 12zm-55.148438-112.457032 7.160157-14.3125-19.585938-9.785156-19.574219 9.792969 7.160157 14.3125 12.414062-6.214844zm-20.425781 242.015625-48-24v-73.886719l48-24v-54.113281l-48-24v-73.886719l56-28 48 24 48-24 56 28v64l43.574219 21.789063-7.160157 14.3125-44.414062-22.214844-40 20v54.113281l43.574219 21.789063-7.160157 14.3125-44.414062-22.214844-40 20v54.113281l43.574219 21.789063-7.160157 14.3125-44.414062-22.214844-40 20v59.054688h-16zm16-121.886719 40 20 40-20v-54.113281l-40-20-40 20zm88-162.113281-40 20v54.113281l40 20 40-20v-54.113281zm-136 74.113281 40 20 40-20v-54.113281l-40-20-40 20zm0 176 40 20 40-20v-54.113281l-40-20-40 20zm336-190.113281-48-24v-73.886719l56-28 56 28v64l43.574219 21.789063-7.160157 14.3125-44.414062-22.214844-40 20v59.054688h-16zm-32-33.886719 40 20 40-20v-54.113281l-40-20-40 20zm136 192 43.574219 21.789063-7.160157 14.3125-44.414062-22.214844-40 20v54.113281l43.574219 21.789063-7.160157 14.3125-44.414062-22.214844-40 20v59.054688h-16v-59.054688l-40-20-40 20v54.113281l43.574219 21.789063-7.160157 14.3125-44.414062-22.214844-48 24-48-24-44.425781 22.207031-7.160157-14.3125 43.585938-21.78125v-54.113281l-43.574219-21.792969 7.160157-14.3125 44.414062 22.21875 40-20v-54.113281l-43.574219-21.792969 7.160157-14.3125 44.414062 22.21875 40-20v-59.058593h16v59.058593l40 20 40-20v-54.113281l-43.574219-21.792969 7.160157-14.3125 44.414062 22.21875 40-20v-59.058593h16v59.058593l48 24zm-240 88 40 20 40-20v-54.113281l-40-20-40 20zm32 33.886719-40-20-40 20v54.113281l40 20 40-20zm144-88-40-20-40 20v54.113281l40 20 40-20zm48-88-40-20-40 20v54.113281l40 20 40-20zm0 0" fill="url(#a)"/></svg>