<svg height="496pt" viewBox="-32 0 496 496" width="496pt" xmlns="http://www.w3.org/2000/svg" xmlns:xlink="http://www.w3.org/1999/xlink"><path d="m40 448h64v32h-32v16h288v-16h-32v-32h64c22.054688 0 40-17.945312 40-40v-232c0-22.054688-17.945312-40-40-40h-32v-24.609375l-29.816406-3.976563c-2.023438-6.34375-4.550782-12.46875-7.558594-18.316406l18.246094-23.882812-46.101563-46.09375-23.867187 18.253906c-5.847656-3.007812-11.972656-5.535156-18.316406-7.558594l-3.976563-29.816406h-65.21875l-3.964844 29.816406c-6.347656 2.023438-12.472656 4.550782-18.320312 7.558594l-23.875-18.253906-46.109375 46.101562 18.246094 23.882813c-3.007813 5.839843-5.535157 11.972656-7.558594 18.320312l-29.808594 3.964844v24.609375h-32c-22.054688 0-40 17.945312-40 40v232c0 22.054688 17.945312 40 40 40zm272 32h-192v-32h192zm-224-354.601562 26.34375-3.511719 1.390625-5.132813c2.335937-8.617187 5.738281-16.832031 10.089844-24.410156l2.648437-4.617188-16.128906-21.085937 26.296875-26.304687 21.09375 16.136718 4.617187-2.65625c7.578126-4.351562 15.792969-7.746094 24.410157-10.082031l5.132812-1.390625 3.511719-26.34375h37.1875l3.511719 26.34375 5.132812 1.390625c8.617188 2.335937 16.832031 5.730469 24.410157 10.082031l4.617187 2.65625 21.09375-16.136718 26.296875 26.304687-16.128906 21.09375 2.648437 4.617187c4.351563 7.578126 7.753907 15.792969 10.089844 24.410157l1.390625 5.132812 26.34375 3.503907v10.601562h-40.40625c-4.058594-44.785156-41.769531-80-87.59375-80s-83.535156 35.214844-87.59375 80h-40.40625zm83.792969 44.914062c-7.449219 3.472656-13.457031 7.183594-17.753907 10.144531-6.453124-10.890625-10.039062-23.34375-10.039062-36.457031 0-13.3125 3.695312-25.761719 10.023438-36.464844 4.28125 2.953125 10.257812 6.648438 17.671874 10.113282-2.289062 8.128906-3.695312 16.9375-3.695312 26.351562s1.496094 18.175781 3.792969 26.3125zm-8.128907-75.609375c8.222657-8.726563 18.558594-15.414063 30.222657-19.191406-5.695313 7.128906-11.78125 16.191406-16.648438 26.976562-5.582031-2.703125-10.191406-5.503906-13.574219-7.785156zm52.351563-19.847656c6.113281 6.015625 16.503906 17.695312 23.808594 33.519531-7.222657 2.160156-15.257813 3.625-23.824219 3.625-8.527344 0-16.542969-1.472656-23.769531-3.640625 7.3125-15.785156 17.691406-27.480469 23.785156-33.503906zm-29.214844 48.585937c8.757813 2.695313 18.582031 4.558594 29.199219 4.558594 10.625 0 20.449219-1.863281 29.214844-4.558594 1.707031 6.429688 2.785156 13.277344 2.785156 20.558594s-1.105469 14.121094-2.808594 20.550781c-8.757812-2.6875-18.582031-4.550781-29.191406-4.550781s-20.433594 1.863281-29.191406 4.550781c-1.703125-6.429687-2.808594-13.269531-2.808594-20.550781 0-7.265625 1.089844-14.121094 2.800781-20.558594zm51.3125-47.929687c11.671875 3.777343 22.015625 10.480469 30.238281 19.214843-3.375 2.289063-7.984374 5.097657-13.574218 7.800782-4.867188-10.800782-10.953125-19.886719-16.664063-27.015625zm22.191407 42.128906c7.40625-3.464844 13.390624-7.160156 17.671874-10.113281 6.328126 10.710937 10.023438 23.160156 10.023438 36.472656 0 13.113281-3.585938 25.566406-10.039062 36.457031-4.296876-2.960937-10.304688-6.671875-17.753907-10.144531 2.296875-8.136719 3.792969-16.898438 3.792969-26.3125s-1.40625-18.222656-3.695312-26.359375zm-244.304688 58.359375c0-13.230469 10.769531-24 24-24h88.441406c2.09375 23.367188 13.246094 44.671875 31.558594 59.769531v68.230469h-48v16h48v16h-80v16h96v-124.105469l-3.183594-2.398437c-3.328125-2.503906-6.304687-5.320313-9.105468-8.265625 3.394531-2.292969 8.007812-5.09375 13.601562-7.796875 4.34375 9.613281 9.625 17.957031 14.6875 24.605468v85.960938h16v-91.503906l-1.734375-2.183594c-4.746094-5.96875-9.882813-13.679688-14.050781-22.695312 7.21875-2.152344 15.234375-3.617188 23.785156-3.617188 8.527344 0 16.542969 1.472656 23.769531 3.640625-4.160156 9.007813-9.289062 16.710937-14.035156 22.671875l-1.734375 2.183594v131.503906h16v-125.960938c5.054688-6.640624 10.328125-14.96875 14.671875-24.574218 5.585937 2.695312 10.207031 5.496094 13.601563 7.78125-2.792969 2.945312-5.761719 5.753906-9.082032 8.25l-3.191406 2.398437v124.105469h96v-16h-80v-16h48v-16h-48v-68.230469c18.3125-15.097656 29.464844-36.402343 31.558594-59.769531h88.441406c13.230469 0 24 10.769531 24 24v208h-400zm0 224h400v8c0 13.230469-10.769531 24-24 24h-352c-13.230469 0-24-10.769531-24-24zm32-88h16v16h-16zm320 0h16v16h-16zm-144-272h-16v-16h16zm-87.191406 36.121094-11.3125-11.3125 11.3125-11.3125 11.3125 11.3125zm158.382812 0-11.3125-11.3125 11.3125-11.3125 11.3125 11.3125zm-71.191406 275.878906h16v16h-16zm-32-40h16v16h-16zm-96-16h-16v-16h16zm240-16h16v16h-16zm0 0" fill="#000"/></svg>