<?xml version="1.0"?>
<svg xmlns="http://www.w3.org/2000/svg" id="Layer_3" enable-background="new 0 0 64 64" height="512px" viewBox="0 0 64 64" width="512px" class=""><g><path d="m52 24c3.86 0 7-3.14 7-7v-4c0-1.654-1.346-3-3-3h-14c-1.654 0-3 1.346-3 3v6c0 2.757 2.243 5 5 5zm-11-5v-6c0-.551.449-1 1-1h14c.551 0 1 .449 1 1v4c0 2.757-2.243 5-5 5h-8c-1.654 0-3-1.346-3-3z" data-original="#000000" class="active-path" data-old_color="#000000" fill="#FFFFFF"/><path d="m22 10h-14c-1.654 0-3 1.346-3 3v4c0 3.86 3.14 7 7 7h8c2.757 0 5-2.243 5-5v-6c0-1.654-1.346-3-3-3zm1 9c0 1.654-1.346 3-3 3h-8c-2.757 0-5-2.243-5-5v-4c0-.551.449-1 1-1h14c.551 0 1 .449 1 1z" data-original="#000000" class="active-path" data-old_color="#000000" fill="#FFFFFF"/><path d="m52 28c6.065 0 11-4.935 11-11v-4c0-3.86-3.14-7-7-7h-14c-3.8 0-6.896 3.046-6.991 6.824-.9-.53-1.927-.824-3.009-.824s-2.109.294-3.009.824c-.095-3.778-3.191-6.824-6.991-6.824h-14c-3.86 0-7 3.14-7 7v4c0 6.065 4.935 11 11 11h8c2.299 0 4.393-.874 5.986-2.298-.037 1.951-.461 3.901-1.257 5.682-3.019 1.033-4.976 3.994-4.704 7.22.044.518.153 1.017.31 1.496-4.549.543-8.488 3.47-10.283 7.777-1.228 2.946-3.193 5.557-5.685 7.55l-3.218 2.573h15.146c6.642 0 12.689-3.761 15.705-9.55 3.016 5.789 9.062 9.55 15.705 9.55h15.146l-3.217-2.574c-2.492-1.993-4.458-4.604-5.685-7.55-1.795-4.307-5.734-7.234-10.283-7.777.156-.479.266-.978.31-1.496.272-3.226-1.685-6.187-4.704-7.22-.796-1.781-1.22-3.731-1.257-5.682 1.592 1.425 3.686 2.299 5.985 2.299zm-20-14c1.171 0 2.239.523 3 1.413v3.398c-.884-.513-1.907-.812-3-.812s-2.116.299-3 .812v-3.398c.761-.89 1.83-1.413 3-1.413zm-12 12h-8c-4.962 0-9-4.038-9-9v-4c0-2.757 2.243-5 5-5h14c2.757 0 5 2.243 5 5v6c0 3.86-3.14 7-7 7zm-3.705 30h-9.532c2.212-2.049 3.973-4.565 5.134-7.354 1.612-3.869 5.274-6.419 9.426-6.626.803 1.096 1.92 1.963 3.22 2.471l-3.228 1.614.895 1.789 3.496-1.748-1.823 3.379 1.76.949 2.458-4.556c.622.46 1.47.793 2.453.959-2.548 5.506-8.12 9.123-14.259 9.123zm26.382-13.98c4.151.206 7.814 2.757 9.426 6.626 1.162 2.789 2.922 5.305 5.134 7.354h-9.532c-6.139 0-11.711-3.617-14.258-9.123 1.272-.215 2.33-.713 2.966-1.421l2.708 5.018 1.76-.949-1.823-3.379 3.496 1.748.895-1.789-3.584-1.792c1.125-.521 2.094-1.314 2.812-2.293zm-.696-3.584c-.216 2.56-2.508 4.564-5.219 4.564h-.114c-.683 0-1.306.392-1.668 1.05-.21.383-1.304.95-2.98.95s-2.77-.567-2.981-.951c-.362-.657-.985-1.049-1.668-1.049h-.114c-2.711 0-5.003-2.005-5.219-4.564-.204-2.421 1.347-4.633 3.688-5.26l.442-.118.2-.412c1.081-2.234 1.652-4.728 1.652-7.211v-1.435c0-2.206 1.794-4 4-4s4 1.794 4 4v1.434c0 2.483.571 4.977 1.652 7.211l.2.412.442.118c2.341.628 3.892 2.84 3.687 5.261zm-4.981-19.436v-6c0-2.757 2.243-5 5-5h14c2.757 0 5 2.243 5 5v4c0 4.962-4.038 9-9 9h-8c-3.86 0-7-3.14-7-7z" data-original="#000000" class="active-path" data-old_color="#000000" fill="#FFFFFF"/><path d="m19 14h2v2h-2z" data-original="#000000" class="active-path" data-old_color="#000000" fill="#FFFFFF"/><path d="m9 14h8v2h-8z" data-original="#000000" class="active-path" data-old_color="#000000" fill="#FFFFFF"/><path d="m53 14h2v2h-2z" data-original="#000000" class="active-path" data-old_color="#000000" fill="#FFFFFF"/><path d="m43 14h8v2h-8z" data-original="#000000" class="active-path" data-old_color="#000000" fill="#FFFFFF"/><path d="m28 35c-1.654 0-3 1.346-3 3s1.346 3 3 3 3-1.346 3-3-1.346-3-3-3zm0 4c-.551 0-1-.449-1-1s.449-1 1-1 1 .449 1 1-.449 1-1 1z" data-original="#000000" class="active-path" data-old_color="#000000" fill="#FFFFFF"/></g> </svg>
